<?xml version="1.0" standalone="no"?>
<!DOCTYPE svg PUBLIC "-//W3C//DTD SVG 20010904//EN"
 "http://www.w3.org/TR/2001/REC-SVG-20010904/DTD/svg10.dtd">
<svg version="1.0" xmlns="http://www.w3.org/2000/svg"
 width="512.000000pt" height="512.000000pt" viewBox="0 0 512.000000 512.000000"
 preserveAspectRatio="xMidYMid meet">
<metadata>
Created by potrace 1.11, written by Peter Selinger 2001-2013
</metadata>
<g transform="translate(0.000000,512.000000) scale(0.100000,-0.100000)"
fill="#000000" stroke="none">
<path d="M2379 5116 c-2 -2 -38 -6 -79 -10 -64 -6 -207 -29 -315 -51 -16 -3
-77 -19 -135 -36 -495 -140 -955 -446 -1281 -851 -82 -102 -219 -300 -219
-317 0 -5 -4 -11 -8 -13 -19 -8 -168 -333 -207 -453 -98 -298 -130 -505 -129
-835 0 -184 3 -241 19 -345 3 -16 7 -43 9 -60 14 -98 50 -247 92 -377 14 -43
22 -83 18 -89 -4 -8 -3 -9 4 -5 7 4 14 -4 18 -21 4 -15 23 -62 42 -103 49
-107 62 -139 61 -146 0 -4 3 -10 8 -13 4 -3 21 -31 37 -61 50 -94 169 -270
253 -375 118 -148 216 -244 423 -419 75 -63 286 -195 415 -260 47 -24 82 -46
77 -51 -4 -5 -2 -5 4 -2 10 6 37 -3 129 -43 125 -54 371 -122 532 -146 21 -3
49 -7 63 -10 69 -13 173 -18 345 -19 225 0 294 6 480 41 44 9 93 18 110 21 47
8 279 81 358 112 130 52 270 123 391 198 250 155 430 311 640 553 85 97 296
419 296 451 0 5 5 7 12 3 6 -4 8 -3 5 3 -3 5 10 43 30 84 30 62 110 261 118
294 1 6 5 17 8 25 8 20 54 205 62 249 3 19 7 37 9 40 3 5 9 42 22 131 28 206
26 531 -5 735 -26 167 -88 404 -136 520 -6 17 -25 62 -41 100 -16 39 -50 111
-76 160 -26 50 -56 106 -65 125 -10 19 -22 40 -26 45 -5 6 -29 42 -55 82 -120
184 -335 421 -516 567 -89 72 -279 206 -293 206 -3 0 -14 6 -22 14 -9 8 -79
45 -156 84 -149 74 -305 135 -451 176 -111 31 -255 61 -344 71 -25 3 -56 8
-70 11 -28 6 -456 15 -461 10z"/>
</g>
</svg>
